<?xml version="1.0" standalone="no"?>
<!DOCTYPE svg PUBLIC "-//W3C//DTD SVG 20010904//EN"
 "http://www.w3.org/TR/2001/REC-SVG-20010904/DTD/svg10.dtd">
<svg version="1.0" xmlns="http://www.w3.org/2000/svg"
 width="260.000000pt" height="260.000000pt" viewBox="0 0 260.000000 260.000000"
 preserveAspectRatio="xMidYMid meet">
<metadata>
Created by potrace 1.11, written by Peter Selinger 2001-2013
</metadata>
<g transform="translate(0.000000,260.000000) scale(0.100000,-0.100000)"
fill="#000000" stroke="none">
<path d="M955 2450 c-11 -4 -31 -6 -45 -5 -31 2 -71 -22 -64 -39 3 -7 -1 -18
-8 -24 -26 -21 -129 -71 -141 -68 -6 1 -8 1 -3 -2 7 -4 -117 -82 -130 -82 -3
0 -2 5 2 12 4 7 3 8 -5 4 -6 -4 -9 -11 -6 -16 3 -4 -8 -12 -23 -18 -29 -10
-216 -181 -207 -190 3 -3 14 3 25 13 11 10 20 13 20 7 0 -7 -9 -17 -20 -24
-11 -7 -20 -17 -20 -21 0 -11 -63 -87 -72 -87 -4 0 -5 7 -2 15 22 56 -57 -53
-113 -157 -26 -48 -30 -63 -21 -78 9 -15 7 -24 -15 -50 -15 -17 -27 -37 -28
-43 0 -7 -2 -25 -5 -42 -3 -27 -3 -49 -2 -135 2 -101 -3 -174 -12 -160 -9 13
-10 13 -9 0 0 -8 6 -43 13 -77 7 -35 12 -63 9 -63 -2 0 1 -9 7 -21 7 -11 13
-33 15 -48 4 -30 87 -208 120 -256 114 -168 265 -330 388 -418 86 -61 292
-159 415 -197 83 -26 113 -31 155 -26 100 12 192 14 205 4 8 -7 16 -7 25 0 7
6 47 13 88 16 123 7 149 13 294 69 44 17 86 37 93 44 7 7 18 13 23 13 6 0 34
11 62 24 29 13 73 33 99 44 110 48 292 208 374 329 22 32 41 60 44 63 3 3 14
21 24 40 63 114 68 144 72 429 3 187 1 257 -8 268 -6 8 -13 33 -14 56 -6 108
-15 147 -49 217 -40 85 -45 94 -98 167 -38 53 -57 70 -37 33 17 -31 -1 -23
-45 21 -22 22 -57 45 -77 51 -21 6 -38 15 -38 20 0 4 -7 8 -16 8 -9 0 -28 8
-42 18 -39 26 -82 43 -82 32 0 -5 5 -12 10 -15 6 -3 10 -15 10 -26 0 -34 -36
-57 -56 -36 -4 4 -16 7 -26 7 -10 0 -21 7 -24 15 -4 8 -10 15 -16 15 -5 0 -6
-4 -3 -10 11 -17 -11 -11 -29 9 -10 11 -25 16 -41 14 -13 -3 -38 2 -56 11 -39
20 -49 21 -24 3 24 -18 11 -39 -18 -28 -12 4 -28 6 -35 4 -13 -5 -108 25 -129
40 -9 6 -13 5 -13 -2 0 -6 17 -19 38 -28 92 -40 116 -53 100 -53 -9 0 -18 -5
-20 -12 -3 -8 -27 -5 -88 10 -46 12 -85 20 -88 18 -2 -2 7 -7 19 -11 l22 -7
-24 -14 c-13 -7 -18 -13 -11 -14 7 0 10 -5 7 -10 -4 -6 -11 -7 -17 -4 -6 4
-27 8 -47 10 -20 1 -65 5 -101 9 -44 4 -60 3 -50 -4 8 -5 18 -7 24 -4 5 4 7
-1 3 -10 -3 -9 1 -18 9 -21 21 -8 24 -8 24 5 0 5 -4 7 -10 4 -5 -3 -10 -1 -10
4 0 6 12 11 28 11 20 0 23 -3 12 -10 -20 -12 -10 -20 36 -24 54 -6 68 -9 76
-21 5 -6 8 -4 9 5 0 10 3 9 9 -5 9 -19 9 -19 16 3 8 27 14 27 45 4 27 -20 155
-82 170 -82 18 0 137 -128 187 -202 58 -86 109 -184 127 -246 13 -41 13 -184
0 -252 -2 -14 -7 -45 -10 -70 -15 -119 -58 -192 -187 -320 -62 -62 -90 -81
-188 -127 -155 -73 -214 -98 -255 -108 -11 -3 -42 -11 -70 -19 -37 -11 -97
-14 -225 -12 -167 3 -179 4 -268 34 -51 18 -105 40 -120 49 -73 48 -220 230
-277 343 -65 129 -69 291 -15 515 32 127 145 272 289 369 110 73 218 126 257
126 19 0 43 4 52 9 10 5 41 12 71 15 30 3 60 11 67 17 18 15 34 66 36 115 1
47 -5 57 -114 164 -43 42 -85 93 -93 113 -10 24 -24 39 -40 43 -14 3 -25 10
-25 14 0 13 -23 18 -45 10z m812 -386 c-3 -3 -12 -4 -19 -1 -8 3 -5 6 6 6 11
1 17 -2 13 -5z m-237 -81 c0 -5 -11 -9 -25 -9 -14 -1 -25 2 -25 7 0 5 11 9 25
9 14 0 25 -3 25 -7z m43 -10 c-7 -2 -19 -2 -25 0 -7 3 -2 5 12 5 14 0 19 -2
13 -5z"/>
<path d="M1270 2220 c0 -5 5 -10 10 -10 6 0 10 5 10 10 0 6 -4 10 -10 10 -5 0
-10 -4 -10 -10z"/>
<path d="M1600 2161 c8 -5 26 -12 40 -16 24 -7 24 -7 5 9 -11 8 -29 15 -40 15
-16 0 -17 -1 -5 -8z"/>
<path d="M1530 2147 c61 -24 80 -29 80 -19 0 5 -13 12 -29 15 -89 18 -88 18
-51 4z"/>
<path d="M1385 2140 c-19 -8 -19 -9 3 -9 12 -1 22 4 22 9 0 6 -1 10 -2 9 -2 0
-12 -4 -23 -9z"/>
<path d="M1453 2140 c4 -18 37 -27 37 -10 0 6 -5 8 -11 4 -6 -3 -16 0 -21 7
-8 12 -9 11 -5 -1z"/>
<path d="M1990 2114 c19 -22 37 -39 39 -38 9 7 -10 34 -41 55 l-33 23 35 -40z"/>
<path d="M1920 2131 c0 -6 4 -13 10 -16 6 -3 7 1 4 9 -7 18 -14 21 -14 7z"/>
<path d="M1420 2120 c0 -5 5 -10 11 -10 5 0 7 5 4 10 -3 6 -8 10 -11 10 -2 0
-4 -4 -4 -10z"/>
<path d="M1539 2104 c19 -8 36 -12 39 -9 5 5 -43 25 -61 25 -7 -1 3 -7 22 -16z"/>
<path d="M2050 2085 c0 -8 4 -15 10 -15 5 0 7 7 4 15 -4 8 -8 15 -10 15 -2 0
-4 -7 -4 -15z"/>
<path d="M1330 2000 c0 -5 5 -10 11 -10 5 0 7 5 4 10 -3 6 -8 10 -11 10 -2 0
-4 -4 -4 -10z"/>
<path d="M270 1960 c0 -5 5 -10 10 -10 6 0 10 5 10 10 0 6 -4 10 -10 10 -5 0
-10 -4 -10 -10z"/>
<path d="M37 1455 c-4 -8 -2 -17 3 -20 6 -4 10 3 10 14 0 25 -6 27 -13 6z"/>
<path d="M27 1323 c-4 -3 -7 -22 -6 -42 l1 -36 9 39 c9 39 8 52 -4 39z"/>
</g>
</svg>
